<svg xml:space="preserve" xmlns="http://www.w3.org/2000/svg" viewBox="0 0 1085.7 613.3"><path style="fill:#fff;fill-opacity:1;fill-rule:nonzero;stroke:none" d="M144.4 64.3 130.7 0H45l41.3 193h85.6l-9.3-43h57.3l13.7 64.3H0L18.4 300H295l34-43-32.2-150L245 64H144.4Z" transform="matrix(1.3333333,0,0,-1.3333333,-737.33331,1026.6666) translate(905.17285,470)"/><path style="fill:#1fdb01;fill-opacity:1;fill-rule:nonzero;stroke:none" d="m177.5 193-4.7-23.1h27.5l-15-66.4h-.2l-3.8-17.8H94.7l27.5 128.6h113.5L254 300H97.7l-52-42.7L0 43 34 0H206L258 43l31.6 150z" transform="matrix(1.3333333,0,0,-1.3333333,-737.33331,1026.6666) translate(685,470)"/><path style="fill:#fff;fill-opacity:1;fill-rule:nonzero;stroke:none" d="M9 0 0 11.4l12.1 57.2 14 11.4h65.1l-5-22.9H32.7L25.3 23h39.4l1.2 5.7H48.8l4.8 22.8h40l-8.5-40L71.3 0ZM164.2 0l-3 11.4h-38.8L114.7 0H89.6l38.7 57.1h-8.6l5 22.9H169l20.3-80Zm-12.3 57.1h-.8l-13.2-22.8h17.5zM264.1 0l9 41.7-29.2-30.5-16 30.5-9-41.7h-22.8l12.1 57.1h-8.5l4.9 22.9H236l16-30.5L281.1 80H304L287 0ZM301.8 0 314 57.1h-8.5l4.9 22.9H393l-4.9-22.9h-51.4l-1.2-5.7h40l-4.9-22.8h-40l-1.1-5.7H381L376.1 0ZM463.3 17.1 459.6 0h-22.9l11 51.4h22.9L468 40h30.8l3.7 17.1h-62.3l4.9 22.9h73.7l9-11.4-8.5-40L505.5 17zM596.8 0h-59.5l-9 11.4 9.7 45.7h-8.5l4.9 22.9h31.4l-12.2-57.1H590L602.4 80h22.8l-14.6-68.6ZM619.6 0l4.9 22.9h57.7l1.2 5.7H637L628 40l6.1 28.6L648 80h69.2l-5-22.9h-57.6l-1.2-5.7h46.3l9-11.4-6.1-28.6L688.7 0ZM774.4 0l6 28.6H744l-6-28.6h-23l12.2 57.1h-8.6l5 22.9h31.4l-6-28.6h36.5l6 28.6h22.9l-17-80Z" transform="matrix(1.3333333,0,0,-1.3333333,-737.33331,1026.6666) translate(553,310)"/></svg>